<svg xmlns="http://www.w3.org/2000/svg" width="512" height="512" viewBox="0 0 512 512"><path fill="#3F51B5" d="M256 0C114.6 0 0 114.6 0 256s114.6 256 256 256s256-114.6 256-256S397.4 0 256 0zM256 464c-114.7 0-208-93.31-208-208S141.3 48 256 48s208 93.31 208 208S370.7 464 256 464zM294.6 203.6C307.1 191.1 327.4 191.1 339.9 203.6C352.4 216.1 352.4 236.4 339.9 248.9L283.9 304.9C271.4 317.4 251.1 317.4 238.6 304.9L182.6 248.9C170.1 236.4 170.1 216.1 182.6 203.6C195.1 191.1 215.4 191.1 227.9 203.6L256 231.7L294.6 203.6z"/><path fill="#3F51B5" d="M227.9 307.4C215.4 294.9 195.1 294.9 182.6 307.4C170.1 319.9 170.1 340.2 182.6 352.7L238.6 408.7C251.1 421.2 271.4 421.2 283.9 408.7L339.9 352.7C352.4 340.2 352.4 319.9 339.9 307.4C327.4 294.9 307.1 294.9 294.6 307.4L256 335.1L227.9 307.4z"/></svg>
